<svg xmlns="http://www.w3.org/2000/svg" xmlns:xlink="http://www.w3.org/1999/xlink" version="1.1" width="256" height="256" viewBox="0 0 256 256" xml:space="preserve">

<defs>
</defs>
<g style="stroke: none; stroke-width: 0; stroke-dasharray: none; stroke-linecap: butt; stroke-linejoin: miter; stroke-miterlimit: 10; fill: none; fill-rule: nonzero; opacity: 1;" transform="translate(1.4065934065934016 1.4065934065934016) scale(2.81 2.81)" >
	<path d="M 45 0 C 20.147 0 0 20.147 0 45 c 0 24.853 20.147 45 45 45 s 45 -20.147 45 -45 C 90 20.147 69.853 0 45 0 z M 62.705 70 H 28.311 v -7.448 l 15.843 -16.656 c 3.905 -4.445 5.857 -7.977 5.857 -10.595 c 0 -2.121 -0.463 -3.735 -1.388 -4.841 s -2.268 -1.659 -4.029 -1.659 c -1.738 0 -3.148 0.74 -4.231 2.217 c -1.084 1.478 -1.625 3.323 -1.625 5.535 H 27.295 c 0 -3.024 0.756 -5.817 2.269 -8.379 c 1.512 -2.562 3.61 -4.565 6.297 -6.009 C 38.546 20.723 41.547 20 44.865 20 c 5.326 0 9.427 1.23 12.305 3.69 c 2.878 2.46 4.316 5.992 4.316 10.595 c 0 1.941 -0.362 3.831 -1.084 5.67 c -0.722 1.84 -1.844 3.77 -3.367 5.788 c -1.524 2.021 -3.978 4.723 -7.364 8.108 l -6.364 7.346 h 19.398 V 70 z" style="stroke: none; stroke-width: 1; stroke-dasharray: none; stroke-linecap: butt; stroke-linejoin: miter; stroke-miterlimit: 10; fill: rgb(0,0,0); fill-rule: nonzero; opacity: 1;" transform=" matrix(1 0 0 1 0 0) " stroke-linecap="round" />
</g>
</svg>