<?xml version="1.0" encoding="UTF-8"?>
<svg xmlns="http://www.w3.org/2000/svg" xmlns:xlink="http://www.w3.org/1999/xlink" width="2000px" height="474px" viewBox="0 0 2000 474" version="1.1">
<defs>
<clipPath id="clip1">
  <path d="M 566.804688 139.496094 L 1996 139.496094 L 1996 333.933594 L 566.804688 333.933594 Z M 566.804688 139.496094 "/>
</clipPath>
<clipPath id="clip2">
  <path d="M 1.574219 0 L 475 0 L 475 473.429688 L 1.574219 473.429688 Z M 1.574219 0 "/>
</clipPath>
<clipPath id="clip3">
  <path d="M 1.574219 0 L 475.003906 0 L 475.003906 473.429688 L 1.574219 473.429688 Z M 1.574219 0 "/>
</clipPath>
<clipPath id="clip4">
  <path d="M 101.300781 131.664062 L 375.273438 131.664062 L 375.273438 341.769531 L 101.300781 341.769531 Z M 101.300781 131.664062 "/>
</clipPath>
</defs>
<g id="surface1">
<g clip-path="url(#clip1)" clip-rule="nonzero">
<path style=" stroke:none;fill-rule:nonzero;fill:rgb(0%,0%,0%);fill-opacity:1;" d="M 680.75 330.914062 L 606.597656 173.652344 C 606.597656 173.652344 604.839844 221.566406 601.324219 317.394531 L 618.734375 320.261719 L 618.734375 330.914062 L 566.808594 330.914062 L 566.808594 320.261719 L 584.578125 317.394531 L 593.59375 155.882812 L 575.976562 153.015625 L 575.976562 142.363281 L 618.734375 142.363281 L 685.871094 288.769531 L 753.464844 142.363281 L 792.640625 142.363281 L 792.640625 153.015625 L 773.847656 155.882812 C 775.179688 183.058594 776.597656 210.113281 778.097656 237.046875 C 779.601562 263.949219 780.984375 290.730469 782.246094 317.394531 L 801.5 320.261719 L 801.5 330.914062 L 740.355469 330.914062 L 740.355469 320.261719 L 759.097656 317.394531 L 753.464844 175.496094 Z M 824.492188 153.015625 L 824.492188 142.363281 L 885.738281 142.363281 L 885.738281 153.015625 L 866.894531 155.882812 L 866.894531 317.394531 L 885.738281 320.261719 L 885.738281 330.914062 L 824.492188 330.914062 L 824.492188 320.261719 L 843.746094 317.394531 L 843.746094 155.882812 Z M 1022.519531 330.914062 L 948.367188 173.652344 C 948.367188 173.652344 946.625 221.566406 943.144531 317.394531 L 960.503906 320.261719 L 960.503906 330.914062 L 908.628906 330.914062 L 908.628906 320.261719 L 926.347656 317.394531 L 935.359375 155.882812 L 917.746094 153.015625 L 917.746094 142.363281 L 960.503906 142.363281 L 1027.640625 288.769531 L 1095.285156 142.363281 L 1134.410156 142.363281 L 1134.410156 153.015625 L 1115.667969 155.882812 C 1117 183.058594 1118.414062 210.113281 1119.917969 237.046875 C 1121.417969 263.949219 1122.785156 290.730469 1124.015625 317.394531 L 1143.269531 320.261719 L 1143.269531 330.914062 L 1082.125 330.914062 L 1082.125 320.261719 L 1100.917969 317.394531 L 1095.285156 175.496094 Z M 1256.800781 253.640625 L 1253.0625 240.53125 L 1207.023438 240.53125 L 1207.023438 315.910156 L 1276.667969 315.910156 L 1285.679688 293.789062 L 1295.15625 293.789062 L 1291.058594 330.914062 L 1164.519531 330.914062 L 1164.519531 320.261719 L 1183.519531 317.394531 L 1183.519531 155.882812 L 1164.519531 153.015625 L 1164.519531 142.363281 L 1285.527344 142.363281 L 1288.394531 179.488281 L 1277.4375 179.488281 L 1270.675781 157.519531 L 1207.023438 157.519531 L 1207.023438 225.527344 L 1253.0625 225.527344 L 1256.800781 212.261719 L 1265.65625 212.261719 L 1265.65625 253.640625 Z M 1377.550781 318.929688 C 1383.730469 318.929688 1389.328125 318.316406 1394.347656 317.085938 C 1399.398438 315.894531 1403.75 314 1407.40625 311.402344 C 1415.257812 305.976562 1419.183594 298.054688 1419.183594 287.644531 C 1419.183594 278.800781 1416.296875 271.546875 1410.527344 265.878906 C 1404.453125 260.074219 1394.601562 254.1875 1380.980469 248.210938 C 1367.359375 242.238281 1356.980469 236.910156 1349.84375 232.234375 C 1342.710938 227.523438 1337.113281 222.742188 1333.050781 217.894531 C 1325.605469 209.394531 1321.886719 199.101562 1321.886719 187.015625 C 1321.886719 173.019531 1327.945312 161.480469 1340.066406 152.398438 C 1351.296875 143.796875 1364.917969 139.496094 1380.929688 139.496094 C 1393.492188 139.496094 1406.074219 141.78125 1418.671875 146.355469 C 1423.929688 148.472656 1428.671875 150.777344 1432.90625 153.269531 L 1428.554688 186.660156 L 1418.054688 186.660156 C 1418.054688 175.152344 1414.933594 166.789062 1408.683594 161.566406 C 1402.4375 156.378906 1393.390625 153.78125 1381.542969 153.78125 C 1365.226562 153.78125 1354.0625 159.109375 1348.054688 169.757812 C 1346.140625 173.277344 1345.1875 177.203125 1345.1875 181.539062 C 1345.1875 185.839844 1345.800781 189.730469 1347.027344 193.214844 C 1348.292969 196.660156 1350.714844 200.058594 1354.300781 203.402344 C 1361.300781 210.164062 1374.460938 217.570312 1393.78125 225.628906 C 1420.785156 237.132812 1436.542969 250.722656 1441.046875 266.390625 C 1442.378906 271.308594 1443.046875 276.546875 1443.046875 282.113281 C 1443.046875 287.644531 1442.105469 292.882812 1440.230469 297.832031 C 1438.351562 302.816406 1435.792969 307.238281 1432.546875 311.097656 C 1429.304688 314.988281 1425.53125 318.351562 1421.230469 321.183594 C 1416.929688 324.019531 1412.371094 326.339844 1407.558594 328.148438 C 1386.117188 336.480469 1363.621094 335.8125 1340.066406 326.152344 C 1331.460938 322.566406 1323.867188 318.199219 1317.277344 313.042969 L 1322.550781 277.144531 L 1333.152344 277.144531 C 1333.152344 293.90625 1338.441406 305.582031 1349.027344 312.171875 C 1356.296875 316.679688 1365.804688 318.929688 1377.550781 318.929688 Z M 1488.261719 306.640625 C 1480.136719 298.242188 1473.957031 288.308594 1469.726562 276.835938 C 1465.527344 265.367188 1463.425781 253.777344 1463.425781 242.066406 C 1463.425781 230.355469 1464.585938 220.011719 1466.910156 211.035156 C 1469.265625 202.019531 1472.492188 193.8125 1476.585938 186.402344 C 1480.71875 178.960938 1485.6875 172.335938 1491.488281 166.535156 C 1497.292969 160.695312 1503.644531 155.761719 1510.539062 151.734375 C 1524.640625 143.574219 1539.726562 139.496094 1555.808594 139.496094 C 1571.886719 139.496094 1585.851562 141.851562 1597.695312 146.5625 C 1609.542969 151.273438 1619.496094 157.761719 1627.550781 166.023438 C 1643.972656 182.785156 1652.183594 204.785156 1652.183594 232.03125 C 1652.183594 262.378906 1642.984375 287.128906 1624.582031 306.28125 C 1616.082031 315.125 1606.179688 321.917969 1594.878906 326.664062 C 1583.582031 331.410156 1570.949219 333.78125 1556.984375 333.78125 C 1543.023438 333.78125 1530.101562 331.375 1518.21875 326.5625 C 1506.375 321.714844 1496.386719 315.074219 1488.261719 306.640625 Z M 1506.542969 177.644531 C 1500.46875 184.710938 1495.792969 192.957031 1492.511719 202.378906 C 1489.203125 211.800781 1487.546875 221.019531 1487.546875 230.03125 C 1487.546875 239.011719 1488.210938 247.085938 1489.542969 254.253906 C 1490.875 261.421875 1492.855469 268.199219 1495.484375 274.585938 C 1498.113281 280.96875 1501.40625 286.875 1505.367188 292.300781 C 1509.328125 297.695312 1513.9375 302.355469 1519.195312 306.28125 C 1530.355469 314.613281 1543.519531 318.777344 1558.675781 318.777344 C 1579.433594 318.777344 1596.3125 311.746094 1609.320312 297.679688 C 1622.089844 283.820312 1628.472656 265.757812 1628.472656 243.5 C 1628.472656 219.023438 1622.925781 198.660156 1611.832031 182.410156 C 1599.164062 163.800781 1580.660156 154.5 1556.320312 154.5 C 1536.246094 154.5 1519.65625 162.214844 1506.542969 177.644531 Z M 1771.347656 256.765625 L 1767.609375 243.5 L 1719.214844 243.5 L 1719.214844 317.394531 L 1747.585938 320.261719 L 1747.585938 330.914062 L 1676.710938 330.914062 L 1676.710938 320.261719 L 1695.710938 317.394531 L 1695.710938 155.882812 L 1676.710938 153.015625 L 1676.710938 142.363281 L 1803.964844 142.363281 L 1806.832031 179.488281 L 1795.824219 179.488281 L 1789.117188 157.519531 L 1719.214844 157.519531 L 1719.214844 228.394531 L 1767.609375 228.394531 L 1771.347656 215.132812 L 1779.078125 215.132812 L 1779.078125 256.765625 Z M 1833.71875 142.363281 L 1992.976562 142.363281 L 1996 182.511719 L 1984.734375 182.511719 L 1978.382812 157.519531 L 1924.972656 157.519531 L 1924.972656 317.394531 L 1952.472656 320.261719 L 1952.472656 330.914062 L 1874.328125 330.914062 L 1874.328125 320.261719 L 1901.621094 317.394531 L 1901.621094 157.519531 L 1848.46875 157.519531 L 1841.707031 182.511719 L 1830.699219 182.511719 Z M 1833.71875 142.363281 "/>
</g>
<g clip-path="url(#clip2)" clip-rule="nonzero">
<path style=" stroke:none;fill-rule:nonzero;fill:rgb(0%,0%,0%);fill-opacity:1;" d="M 1.574219 236.714844 C 1.574219 105.980469 107.550781 0 238.285156 0 C 369.023438 0 475 105.980469 475 236.714844 C 475 367.449219 369.023438 473.429688 238.285156 473.429688 C 107.550781 473.429688 1.574219 367.449219 1.574219 236.714844 Z M 238.285156 455.894531 C 359.335938 455.894531 457.46875 357.765625 457.46875 236.714844 C 457.46875 115.664062 359.335938 17.53125 238.285156 17.535156 C 117.234375 17.535156 19.105469 115.667969 19.109375 236.714844 C 19.109375 357.765625 117.238281 455.894531 238.285156 455.894531 Z M 238.285156 455.894531 "/>
</g>
<g clip-path="url(#clip3)" clip-rule="nonzero">
<path style="fill:none;stroke-width:1;stroke-linecap:butt;stroke-linejoin:miter;stroke:rgb(100%,100%,100%);stroke-opacity:1;stroke-miterlimit:4;" d="M 0.000459143 65.50915 C 0.000459143 29.329341 29.328719 -0.000000000000009255 65.508528 -0.000000000000009255 C 101.689418 -0.000000000000009255 131.017678 29.329341 131.017678 65.50915 C 131.017678 101.688959 101.689418 131.0183 65.508528 131.0183 C 29.328719 131.0183 0.000459143 101.688959 0.000459143 65.50915 Z M 65.508528 126.16557 C 99.008471 126.16557 126.166029 99.009093 126.166029 65.50915 C 126.166029 32.009207 99.008471 4.851649 65.508528 4.85273 C 32.008585 4.85273 4.852108 32.010288 4.853189 65.50915 C 4.853189 99.009093 32.009666 126.16557 65.508528 126.16557 Z M 65.508528 126.16557 " transform="matrix(3.613462,0,0,3.613462,1.57256,0.000000000000033443)"/>
</g>
<path style=" stroke:none;fill-rule:nonzero;fill:rgb(0%,0%,0%);fill-opacity:1;" d="M 310.515625 166.214844 C 310.5 159.652344 307.652344 156.769531 301.089844 156.769531 C 245.929688 156.761719 190.765625 156.761719 135.601562 156.765625 C 129.515625 156.765625 126.632812 159.664062 126.59375 165.820312 C 126.5625 171.894531 126.585938 177.96875 126.605469 184.039062 C 126.605469 184.746094 126.726562 185.453125 126.800781 186.199219 C 188.070312 186.199219 249.113281 186.199219 310.515625 186.199219 C 310.515625 179.335938 310.527344 172.777344 310.515625 166.214844 Z M 310.515625 166.214844 "/>
<path style=" stroke:none;fill-rule:nonzero;fill:rgb(0%,0%,0%);fill-opacity:1;" d="M 334.441406 186.285156 C 342.109375 186.363281 348.53125 180.117188 348.589844 172.527344 C 348.652344 164.679688 342.449219 158.292969 334.707031 158.246094 C 327.023438 158.195312 320.644531 164.402344 320.550781 172.015625 C 320.449219 179.835938 326.65625 186.210938 334.441406 186.285156 Z M 334.441406 186.285156 "/>
<g clip-path="url(#clip4)" clip-rule="nonzero">
<path style=" stroke:none;fill-rule:nonzero;fill:rgb(0%,0%,0%);fill-opacity:1;" d="M 351.488281 131.675781 C 276.039062 131.664062 200.59375 131.65625 125.144531 131.667969 C 110.636719 131.671875 101.324219 141.054688 101.316406 155.78125 C 101.289062 209.742188 101.304688 263.703125 101.328125 317.660156 C 101.328125 319.636719 101.371094 321.664062 101.769531 323.585938 C 104.011719 334.527344 112.835938 341.734375 124.023438 341.742188 C 161.976562 341.769531 199.929688 341.75 237.886719 341.757812 C 242.023438 341.761719 246.15625 341.761719 250.289062 341.761719 C 284.476562 341.757812 318.664062 341.789062 352.847656 341.730469 C 362.894531 341.710938 371.328125 335.492188 374.070312 325.921875 C 374.960938 322.808594 375.195312 319.398438 375.199219 316.125 C 375.28125 282.613281 375.25 249.101562 375.25 215.589844 C 375.25 195.710938 375.324219 175.832031 375.214844 155.949219 C 375.136719 141.097656 365.84375 131.679688 351.488281 131.675781 Z M 362.296875 218.148438 C 362.296875 247.601562 362.324219 277.058594 362.253906 306.511719 C 362.25 309.390625 362.039062 312.386719 361.226562 315.125 C 358.746094 323.535156 351.113281 329.003906 342.015625 329.019531 C 311.0625 329.074219 280.109375 329.046875 249.15625 329.046875 C 245.410156 329.046875 241.667969 329.046875 237.921875 329.046875 C 203.558594 329.042969 169.195312 329.058594 134.828125 329.03125 C 124.699219 329.027344 116.710938 322.691406 114.679688 313.070312 C 114.320312 311.382812 114.28125 309.601562 114.277344 307.863281 C 114.257812 260.433594 114.242188 213.003906 114.269531 165.578125 C 114.277344 152.636719 122.707031 144.382812 135.84375 144.382812 C 204.15625 144.375 272.46875 144.378906 340.78125 144.390625 C 353.78125 144.390625 362.195312 152.667969 362.265625 165.722656 C 362.363281 183.199219 362.296875 200.671875 362.296875 218.148438 Z M 362.296875 218.148438 "/>
</g>
<path style=" stroke:none;fill-rule:nonzero;fill:rgb(0%,0%,0%);fill-opacity:1;" d="M 228.09375 203.367188 L 138.257812 203.367188 C 133.195312 203.367188 129.089844 207.46875 129.089844 212.53125 L 129.089844 243.53125 C 129.089844 261.289062 129.089844 279.046875 129.074219 296.808594 C 129.074219 298.78125 129.066406 304.78125 134.105469 309.363281 C 138.363281 313.238281 143.359375 313.316406 145.875 313.316406 C 145.929688 313.316406 145.988281 313.316406 146.042969 313.316406 L 228.09375 313.308594 C 233.15625 313.308594 237.261719 309.207031 237.261719 304.144531 L 237.261719 212.53125 C 237.261719 207.472656 233.152344 203.367188 228.09375 203.367188 Z M 218.929688 294.976562 L 147.40625 294.984375 C 147.421875 277.835938 147.421875 260.683594 147.421875 243.535156 L 147.421875 221.699219 L 218.929688 221.699219 Z M 218.929688 294.976562 "/>
<path style=" stroke:none;fill-rule:nonzero;fill:rgb(0%,0%,0%);fill-opacity:1;" d="M 167.828125 283.40625 C 169.511719 284.894531 171.675781 285.707031 173.898438 285.703125 C 174.234375 285.703125 174.570312 285.683594 174.90625 285.648438 C 177.480469 285.363281 179.808594 284.003906 181.328125 281.90625 L 207.636719 245.511719 C 210.601562 241.410156 209.679688 235.679688 205.578125 232.714844 C 201.472656 229.746094 195.746094 230.671875 192.78125 234.773438 L 172.394531 262.972656 L 168.132812 259.199219 C 164.335938 255.84375 158.546875 256.199219 155.195312 259.996094 C 151.839844 263.785156 152.199219 269.578125 155.988281 272.929688 Z M 167.828125 283.40625 "/>
<path style=" stroke:none;fill-rule:nonzero;fill:rgb(0%,0%,0%);fill-opacity:1;" d="M 257.402344 316.667969 C 285.035156 316.667969 312.671875 316.664062 340.3125 316.660156 C 347.253906 316.660156 349.964844 313.949219 349.964844 306.972656 C 349.96875 272.695312 349.964844 238.414062 349.964844 204.136719 C 349.964844 203.246094 349.964844 202.355469 349.964844 201.328125 C 319.070312 201.328125 288.238281 201.328125 257.402344 201.328125 Z M 257.402344 316.667969 "/>
</g>
</svg>
