<svg xmlns="http://www.w3.org/2000/svg" version="1.1" xmlns:xlink="http://www.w3.org/1999/xlink" xmlns:svgjs="http://svgjs.dev/svgjs" width="1000" height="237" viewBox="0 0 1000 237"><g transform="matrix(1,0,0,1,-0.6060557635864257,-0.142657846220132)"><svg viewBox="0 0 396 94" data-background-color="#97978d" preserveAspectRatio="xMidYMid meet" height="237" width="1000" xmlns="http://www.w3.org/2000/svg" xmlns:xlink="http://www.w3.org/1999/xlink"><g id="tight-bounds" transform="matrix(1,0,0,1,0.23999808238022524,0.0565815930155793)"><svg viewBox="0 0 395.52 93.88683681396886" height="93.88683681396886" width="395.52"><g><svg viewBox="0 0 551.9444990441623 131.01821175193936" height="93.88683681396886" width="395.52"><g transform="matrix(1,0,0,1,156.42449904416236,38.60433019756209)"><svg viewBox="0 0 395.52 53.80955135681518" height="53.80955135681518" width="395.52"><g><svg viewBox="0 0 395.52 53.80955135681518" height="53.80955135681518" width="395.52"><g><svg viewBox="0 0 395.52 53.80955135681518" height="53.80955135681518" width="395.52"><g transform="matrix(1,0,0,1,0,0)"><svg width="395.52" viewBox="2.119999885559082 -37.380001068115234 279.0899963378906 37.9697151184082" height="53.80955135681518" data-palette-color="#ffffff"><path d="M24.37 0L9.89-30.71Q9.89-30.71 8.86-2.64L8.86-2.64 12.26-2.08 12.26 0 2.12 0 2.12-2.08 5.59-2.64 7.35-34.18 3.91-34.74 3.91-36.82 12.26-36.82 25.37-8.23 38.57-36.82 46.22-36.82 46.22-34.74 42.55-34.18Q42.94-26.22 43.38-18.33 43.82-10.45 44.19-2.64L44.19-2.64 47.95-2.08 47.95 0 36.01 0 36.01-2.08 39.67-2.64 38.57-30.35 24.37 0ZM52.44-34.74L52.44-36.82 64.4-36.82 64.4-34.74 60.72-34.18 60.72-2.64 64.4-2.08 64.4 0 52.44 0 52.44-2.08 56.2-2.64 56.2-34.18 52.44-34.74ZM91.11 0L76.63-30.71Q76.63-30.71 75.61-2.64L75.61-2.64 79-2.08 79 0 68.87 0 68.87-2.08 72.33-2.64 74.09-34.18 70.65-34.74 70.65-36.82 79-36.82 92.11-8.23 105.32-36.82 112.96-36.82 112.96-34.74 109.3-34.18Q109.69-26.22 110.13-18.33 110.57-10.45 110.93-2.64L110.93-2.64 114.69-2.08 114.69 0 102.75 0 102.75-2.08 106.42-2.64 105.32-30.35 91.11 0ZM136.86-15.09L136.13-17.65 127.14-17.65 127.14-2.93 140.74-2.93 142.5-7.25 144.35-7.25 143.55 0 118.84 0 118.84-2.08 122.55-2.64 122.55-34.18 118.84-34.74 118.84-36.82 142.47-36.82 143.03-29.57 140.89-29.57 139.57-33.86 127.14-33.86 127.14-20.58 136.13-20.58 136.86-23.17 138.59-23.17 138.59-15.09 136.86-15.09ZM160.44-2.34L160.44-2.34Q162.25-2.34 163.72-2.7 165.2-3.05 166.27-3.81L166.27-3.81Q168.57-5.4 168.57-8.45L168.57-8.45Q168.57-11.04 166.88-12.7L166.88-12.7Q165.1-14.4 161.11-16.15 157.12-17.9 155.03-19.27 152.94-20.65 151.75-22.07L151.75-22.07Q149.57-24.56 149.57-28.1L149.57-28.1Q149.57-32.2 153.12-34.86L153.12-34.86Q156.41-37.38 161.1-37.38L161.1-37.38Q164.78-37.38 168.47-36.04L168.47-36.04Q170.01-35.42 171.25-34.69L171.25-34.69 170.4-28.17 168.35-28.17Q168.35-31.54 166.52-33.07 164.69-34.59 161.22-34.59L161.22-34.59Q156.44-34.59 154.68-31.47L154.68-31.47Q154.12-30.44 154.12-29.17 154.12-27.91 154.48-26.89 154.85-25.88 155.9-24.9L155.9-24.9Q157.95-22.92 163.61-20.56L163.61-20.56Q171.52-17.19 172.84-12.6L172.84-12.6Q173.23-11.16 173.23-9.53 173.23-7.91 172.68-6.46 172.13-5 171.18-3.87 170.23-2.73 168.97-1.9 167.71-1.07 166.3-0.54L166.3-0.54Q160.02 1.9 153.12-0.93L153.12-0.93Q150.6-1.98 148.67-3.49L148.67-3.49 149.7-10.5 151.77-10.5Q151.77-5.59 154.87-3.66L154.87-3.66Q157-2.34 160.44-2.34ZM182.06-4.74Q179.68-7.2 178.44-10.56 177.21-13.92 177.21-17.35 177.21-20.78 177.89-23.41 178.58-26.05 179.78-28.22 180.99-30.4 182.69-32.1 184.39-33.81 186.41-34.99L186.41-34.99Q190.54-37.38 195.25-37.38 199.96-37.38 203.43-36 206.9-34.62 209.26-32.2L209.26-32.2Q214.07-27.29 214.07-19.31L214.07-19.31Q214.07-10.42 208.68-4.81L208.68-4.81Q206.19-2.22 202.88-0.83 199.57 0.56 195.48 0.56 191.39 0.56 187.91-0.85 184.44-2.27 182.06-4.74ZM185.63-29.93Q183.85-27.86 182.89-25.1 181.92-22.34 181.92-19.7 181.92-17.07 182.31-14.97 182.7-12.87 183.47-11 184.24-9.13 185.4-7.54 186.56-5.96 188.1-4.81L188.1-4.81Q191.37-2.37 195.81-2.37L195.81-2.37Q201.89-2.37 205.7-6.49L205.7-6.49Q209.44-10.55 209.44-17.07L209.44-17.07Q209.44-24.24 206.19-29L206.19-29Q202.48-34.45 195.35-34.45L195.35-34.45Q189.47-34.45 185.63-29.93L185.63-29.93ZM237.34-14.48L236.61-17.07 227.16-17.07 227.16-2.64 232.7-2.08 232.7 0 218.86 0 218.86-2.08 222.57-2.64 222.57-34.18 218.86-34.74 218.86-36.82 243.71-36.82 244.27-29.57 242.12-29.57 240.81-33.86 227.16-33.86 227.16-20.02 236.61-20.02 237.34-22.61 238.85-22.61 238.85-14.48 237.34-14.48ZM249.52-36.82L280.62-36.82 281.21-28.98 279.01-28.98 277.77-33.86 267.34-33.86 267.34-2.64 272.71-2.08 272.71 0 257.45 0 257.45-2.08 262.78-2.64 262.78-33.86 252.4-33.86 251.08-28.98 248.93-28.98 249.52-36.82Z" opacity="1" transform="matrix(1,0,0,1,0,0)" fill="#000000" class="undefined-text-0" data-fill-palette-color="primary" id="text-0"></path></svg></g></svg></g></svg></g></svg></g><g><svg viewBox="0 0 131.01821175193936 131.01821175193936" height="131.01821175193936" width="131.01821175193936"><g><svg></svg></g><g id="icon-0"><svg viewBox="0 0 131.01821175193936 131.01821175193936" height="131.01821175193936" width="131.01821175193936"><g><path d="M0 65.509c0-36.18 29.329-65.509 65.509-65.509 36.18 0 65.509 29.329 65.509 65.509 0 36.18-29.329 65.509-65.509 65.509-36.18 0-65.509-29.329-65.509-65.509zM65.509 126.166c33.5 0 60.657-27.157 60.657-60.657 0-33.5-27.157-60.657-60.657-60.656-33.5 0-60.657 27.157-60.656 60.656 0 33.5 27.157 60.657 60.656 60.657z" data-fill-palette-color="accent" fill="#000000" stroke="transparent"></path></g><g transform="matrix(1,0,0,1,27.59910687936555,36.43662058371896)"><svg viewBox="0 0 75.81999799320826 58.14497058450143" height="58.14497058450143" width="75.81999799320826"><g><svg xmlns="http://www.w3.org/2000/svg" xmlns:xlink="http://www.w3.org/1999/xlink" version="1.1" x="0" y="0" viewBox="5.328391075134277 15.458431243896484 89.6716079711914 68.76751708984375" style="enable-background:new 0 0 100 100;" xml:space="preserve" height="58.14497058450143" width="75.81999799320826" class="icon-s-0" data-fill-palette-color="accent" id="s-0"><path d="M73.804 26.768c-0.004-2.149-0.937-3.092-3.084-3.092-18.055-0.003-36.11-0.003-54.165-0.001-1.992 0-2.936 0.949-2.948 2.963-0.011 1.988-0.003 3.976 0.003 5.964 0.001 0.231 0.04 0.462 0.064 0.706 20.054 0 40.034 0 60.131 0C73.805 31.062 73.808 28.915 73.804 26.768z" fill="#000000" data-fill-palette-color="accent"></path><path d="M81.636 33.337c2.509 0.025 4.611-2.019 4.631-4.503 0.02-2.569-2.011-4.659-4.544-4.675-2.515-0.016-4.603 2.015-4.634 4.507C77.056 31.226 79.087 33.312 81.636 33.337z" fill="#000000" data-fill-palette-color="accent"></path><path d="M87.215 15.463c-24.694-0.004-49.388-0.006-74.083-0.003-4.748 0.001-7.796 3.073-7.798 7.893C5.324 41.014 5.329 58.675 5.337 76.336c0 0.647 0.015 1.31 0.145 1.939 0.734 3.581 3.622 5.94 7.283 5.943 12.422 0.009 24.845 0.003 37.268 0.005 1.354 0.001 2.707 0.001 4.06 0.001 11.189-0.001 22.378 0.009 33.567-0.01 3.288-0.006 6.049-2.042 6.946-5.174 0.292-1.019 0.368-2.135 0.37-3.207 0.026-10.968 0.016-21.937 0.016-32.905 0-6.507 0.024-13.013-0.011-19.52C94.955 18.546 91.914 15.464 87.215 15.463zM90.753 43.765c0 9.641 0.009 19.282-0.014 28.922-0.002 0.942-0.071 1.923-0.336 2.819-0.812 2.753-3.311 4.543-6.289 4.548-10.131 0.017-20.262 0.008-30.392 0.009-1.226 0-2.451 0-3.677-0.001-11.248-0.001-22.495 0.004-33.743-0.004-3.315-0.002-5.93-2.076-6.595-5.224-0.117-0.553-0.13-1.136-0.131-1.705-0.007-15.523-0.012-31.047-0.003-46.57 0.002-4.236 2.762-6.937 7.061-6.937 22.359-0.003 44.718-0.001 67.077 0.002 4.255 0.001 7.008 2.71 7.032 6.983C90.775 32.326 90.753 38.045 90.753 43.765z" fill="#000000" data-fill-palette-color="accent"></path><path d="M46.828 38.927H17.424c-1.657 0-3 1.343-3 3v10.146c0 5.813 0 11.625-0.006 17.438 0 0.646-0.002 2.609 1.648 4.109 1.393 1.268 3.028 1.294 3.852 1.294 0.018 0 0.036 0 0.054 0l26.856-0.002c1.657 0 3-1.343 3-3V41.927C49.828 40.271 48.484 38.927 46.828 38.927zM43.828 68.912l-23.409 0.002c0.005-5.613 0.005-11.227 0.005-16.84v-7.147h23.404V68.912z" fill="#000000" data-fill-palette-color="accent"></path><path d="M27.103 65.124c0.551 0.488 1.259 0.753 1.987 0.752 0.11 0 0.22-0.006 0.33-0.018 0.842-0.093 1.604-0.538 2.101-1.224l8.611-11.912c0.971-1.343 0.669-3.218-0.674-4.189-1.343-0.972-3.218-0.669-4.188 0.674l-6.672 9.229-1.396-1.234c-1.242-1.099-3.137-0.982-4.234 0.26-1.098 1.241-0.981 3.137 0.26 4.234L27.103 65.124z" fill="#000000" data-fill-palette-color="accent"></path><path d="M56.42 76.011c9.045 0 18.091-0.001 27.137-0.002 2.272 0 3.159-0.888 3.159-3.171 0.002-11.219 0.001-22.439 0.001-33.658 0-0.292 0-0.583 0-0.92-10.113 0-20.204 0-30.297 0V76.011z" fill="#000000" data-fill-palette-color="accent"></path></svg></g></svg></g></svg></g></svg></g></svg></g><defs></defs></svg><rect width="395.52" height="93.88683681396886" fill="none" stroke="none" visibility="hidden"></rect></g></svg></g></svg>